<mxfile host="app.diagrams.net" modified="2023-12-09T07:01:22.182Z" agent="Mozilla/5.0 (Macintosh; Intel Mac OS X 10_15_7) AppleWebKit/537.36 (KHTML, like Gecko) Chrome/119.0.0.0 Safari/537.36" version="22.1.7" etag="kpSV74L8oC2PFEv1FGGE" type="github">
  <diagram name="Halaman-1" id="-XRATalAqNTyBLy76Cs6">
    <mxGraphModel>
      <root>
        <mxCell id="0" />
        <mxCell id="1" parent="0" />
      </root>
    </mxGraphModel>
  </diagram>
</mxfile>
